<?xml version="1.0" encoding="utf-8"?>
<!-- Generator: Adobe Illustrator 22.1.0, SVG Export Plug-In . SVG Version: 6.00 Build 0)  -->
<svg version="1.1"
	 id="Calque_1" xmlns:cc="http://creativecommons.org/ns#" xmlns:dc="http://purl.org/dc/elements/1.1/" xmlns:inkscape="http://www.inkscape.org/namespaces/inkscape" xmlns:rdf="http://www.w3.org/1999/02/22-rdf-syntax-ns#" xmlns:sodipodi="http://sodipodi.sourceforge.net/DTD/sodipodi-0.dtd" xmlns:svg="http://www.w3.org/2000/svg"
	 xmlns="http://www.w3.org/2000/svg" xmlns:xlink="http://www.w3.org/1999/xlink" x="0px" y="0px" viewBox="0 0 71.2 70.7"
	 style="enable-background:new 0 0 71.2 70.7;" xml:space="preserve">
<style type="text/css">
	.st0{fill:#f72d9c;}
</style>
<g transform="translate(0,-952.36218)">
	<path class="st0" d="M9.7,952.5c-4.9,0-9,4.1-9,9v52c0,4.9,4.1,9,9,9h52c4.9,0,9-4.1,9-9v-52c0-4.9-4.1-9-9-9H9.7z M9.7,958.5h52
		c1.7,0,3,1.3,3,3v23H52.4c-1.4-7.9-8.4-14-16.7-14s-15.3,6.1-16.7,14H6.7v-23C6.7,959.8,8,958.5,9.7,958.5z M55.7,964.5
		c-2.2,0-4,1.8-4,4c0,2.2,1.8,4,4,4c2.2,0,4-1.8,4-4C59.7,966.3,57.9,964.5,55.7,964.5z M35.7,976.5c6.1,0,11,4.9,11,11
		s-4.9,11-11,11s-11-4.9-11-11S29.6,976.5,35.7,976.5z M6.7,990.5H19c1.4,7.9,8.4,14,16.7,14s15.3-6.1,16.7-14h12.3v23
		c0,1.7-1.3,3-3,3h-52c-1.7,0-3-1.3-3-3V990.5z"/>
</g>
</svg>
