<svg id="Calque_1" data-name="Calque 1" xmlns="http://www.w3.org/2000/svg" viewBox="0 0 241 304"><defs><style>.cls-1{fill:#b3cafa;stroke-width:0.62px;}.cls-1,.cls-2,.cls-3,.cls-4,.cls-5,.cls-8,.cls-9{stroke:#ff3a85;}.cls-1,.cls-2,.cls-3,.cls-4,.cls-5,.cls-7,.cls-8,.cls-9{stroke-miterlimit:10;}.cls-2,.cls-3{fill:#ff3a85;}.cls-2{stroke-width:0.43px;}.cls-3,.cls-4{stroke-width:0.47px;}.cls-4{fill:none;}.cls-4,.cls-8{stroke-linecap:round;}.cls-5{fill:#7796f9;stroke-width:0.61px;}.cls-6{fill:#172cf8;}.cls-7,.cls-8,.cls-9{fill:#fffdfe;}.cls-7{stroke:#fffdfe;stroke-width:0.49px;}.cls-8{stroke-width:0.88px;}.cls-9{stroke-width:0.61px;}</style></defs><title>illu web</title><rect class="cls-1" x="47.14" y="54.26" width="147.37" height="192.21"/><rect class="cls-2" x="56.22" y="65.81" width="31.35" height="3.3"/><rect class="cls-3" x="56.22" y="71.59" width="37.76" height="3.3"/><line class="cls-4" x1="56.22" y1="109.54" x2="106.55" y2="109.54"/><line class="cls-4" x1="56.22" y1="118.75" x2="181.99" y2="118.75"/><line class="cls-4" x1="56.22" y1="127.96" x2="181.99" y2="127.96"/><line class="cls-4" x1="56.22" y1="137.18" x2="181.99" y2="137.18"/><line class="cls-4" x1="56.22" y1="146.39" x2="181.99" y2="146.39"/><line class="cls-4" x1="56.22" y1="155.61" x2="181.99" y2="155.61"/><line class="cls-4" x1="56.22" y1="164.83" x2="181.99" y2="164.83"/><line class="cls-4" x1="56.22" y1="174.04" x2="181.99" y2="174.04"/><line class="cls-4" x1="56.22" y1="183.26" x2="181.99" y2="183.26"/><line class="cls-4" x1="56.22" y1="192.47" x2="181.99" y2="192.47"/><line class="cls-4" x1="56.22" y1="201.69" x2="181.99" y2="201.69"/><line class="cls-4" x1="139.82" y1="210.9" x2="181.99" y2="210.9"/><rect class="cls-5" x="167.9" y="185.09" width="20.9" height="5.68" transform="translate(66.9 -45.96) rotate(18.02)"/><polygon class="cls-6" points="166.76 222.92 159.86 202.55 171.6 189.04 182.16 192.56 185.09 208.1 166.76 222.92 172.48 203.26 166.76 222.92"/><circle class="cls-7" cx="174" cy="199.65" r="1.52"/><line class="cls-8" x1="166.76" y1="222.92" x2="172.48" y2="203.27"/><path class="cls-9" d="M173.36,183.32l.63-17.68L211.81,59.13a1.33,1.33,0,0,1,1.5-.82h0a1.4,1.4,0,0,1,1.12,1.58L194,171.69l-8.87,15.45Z"/></svg>