<svg id="Calque_1" data-name="Calque 1" xmlns="http://www.w3.org/2000/svg" viewBox="0 0 241 304"><defs><style>.cls-1,.cls-4{fill:#172cf8;}.cls-1,.cls-2{stroke:#172cf8;stroke-width:1.1px;}.cls-1,.cls-2,.cls-3,.cls-5,.cls-6{stroke-miterlimit:10;}.cls-2{fill:#fff;}.cls-3{fill:#7796f9;}.cls-3,.cls-5{stroke:#ff3a85;stroke-width:0.62px;}.cls-5{fill:none;stroke-linecap:round;}.cls-6{fill:#fffdfe;stroke:#fffdfe;stroke-width:0.61px;}</style></defs><title>illu web</title><path class="cls-1" d="M2.27,145.54s38,60.22,103.68,60.22c68,0,103.67-60.77,103.67-60.77"/><path class="cls-1" d="M2.82,146.09S62,73.49,108.42,73.49c44,0,101.2,71.5,101.2,71.5"/><path class="cls-2" d="M2.27,145.54s57.2-52.8,105.6-51.7,102.3,51.7,102.3,51.7-42.9,51.7-102.3,52.8S4.47,153.24,2.27,145.54Z"/><circle class="cls-3" cx="108.42" cy="146.09" r="52.25"/><circle class="cls-4" cx="107.87" cy="145.54" r="16.5"/><path class="cls-5" d="M206.38,142.38s24.75,10.85,31.92-14.59"/><path class="cls-5" d="M199.54,137s25,8.33,32.54-17.13"/><path class="cls-5" d="M194.1,132.57s26,1.25,31-25.83"/><path class="cls-5" d="M187.23,127.77s23.81,1.57,27.84-21.89"/><path class="cls-5" d="M180.63,123.09s16.74,1,24.85-14.53"/><path class="cls-5" d="M173.94,118.66s13.17-1.17,18.28-11.92"/><circle class="cls-6" cx="121.24" cy="132.58" r="5.69"/></svg>