<svg xmlns="http://www.w3.org/2000/svg" viewBox="0 0 24.119 19.59">
  <defs>
    <style>
      .cls-1 {
        fill: #f72d9c;
      }
    </style>
  </defs>
  <g id="Groupe_63" data-name="Groupe 63" transform="translate(1.418 -134)">
    <path id="Tracé_23" data-name="Tracé 23" class="cls-1" d="M124.9,25.778A14.081,14.081,0,0,0,146.544,13.3a10.5,10.5,0,0,0,2.475-2.58,10.353,10.353,0,0,1-2.844.79,5.084,5.084,0,0,0,2.159-2.738,9.173,9.173,0,0,1-3.16,1.211,4.9,4.9,0,0,0-8.373,4.476A13.927,13.927,0,0,1,126.638,9.3a4.9,4.9,0,0,0,1.527,6.583,4.507,4.507,0,0,1-2.212-.632,4.948,4.948,0,0,0,3.95,4.9,5.2,5.2,0,0,1-2.212.105,5,5,0,0,0,4.634,3.423A9.888,9.888,0,0,1,124.9,25.778Z" transform="translate(-126.318 125.6)"/>
  </g>
</svg>
