<svg xmlns="http://www.w3.org/2000/svg" viewBox="0 0 41 41">
  <defs>
    <style>
      .cls-1 {
        fill: #f72d9c;
      }

      .cls-2, .cls-4 {
        fill: none;
      }

      .cls-2 {
        stroke: #f72d9c;
        stroke-width: 2px;
      }

      .cls-3 {
        stroke: none;
      }
    </style>
  </defs>
  <g id="RESEAU" transform="translate(-134.958)">
    <g id="Twitter" transform="translate(7.033 -2950.165)">
      <g id="Groupe_63" data-name="Groupe 63" transform="translate(140.014 2828.41)">
        <path id="Tracé_23" data-name="Tracé 23" class="cls-1" d="M124.9,23.478a12.217,12.217,0,0,0,18.779-10.829,9.112,9.112,0,0,0,2.147-2.239,8.982,8.982,0,0,1-2.467.685,4.411,4.411,0,0,0,1.873-2.376,7.959,7.959,0,0,1-2.741,1.051,4.255,4.255,0,0,0-7.265,3.884,12.084,12.084,0,0,1-8.818-4.478,4.251,4.251,0,0,0,1.325,5.711,3.91,3.91,0,0,1-1.919-.548,4.293,4.293,0,0,0,3.427,4.249,4.509,4.509,0,0,1-1.919.091,4.342,4.342,0,0,0,4.021,2.97A8.579,8.579,0,0,1,124.9,23.478Z" transform="translate(-126.318 125.6)"/>
      </g>
    </g>
    <g id="Ellipse_7" data-name="Ellipse 7" class="cls-2" transform="translate(134.958 0)">
      <circle class="cls-3" cx="20.5" cy="20.5" r="20.5"/>
      <circle class="cls-4" cx="20.5" cy="20.5" r="19.5"/>
    </g>
  </g>
</svg>
