<svg id="Groupe_65" data-name="Groupe 65" xmlns="http://www.w3.org/2000/svg" viewBox="0 0 23.225 26.781">
  <defs>
    <style>
      .cls-1 {
        fill: #f72d9c;
      }
    </style>
  </defs>
  <g id="Groupe_59" data-name="Groupe 59" transform="translate(0)">
    <g id="Groupe_57" data-name="Groupe 57" transform="translate(3.4)">
      <path id="Tracé_30" data-name="Tracé 30" class="cls-1" d="M151.694,267.542a2.14,2.14,0,0,0,1.622-.942v.837h1.412V259.8h-1.412v5.806a1.527,1.527,0,0,1-.837.575c-.314,0-.366-.209-.366-.523V259.8H150.7v6.382C150.7,266.914,150.962,267.542,151.694,267.542Z" transform="translate(-140.082 -257.08)"/>
      <path id="Tracé_31" data-name="Tracé 31" class="cls-1" d="M140.5,265.454a1.82,1.82,0,0,0,2.092,2.04,1.949,1.949,0,0,0,2.04-2.04V261.74a2.066,2.066,0,0,0-4.132,0Zm1.465-3.609c0-.418.209-.732.575-.732.418,0,.628.314.628.732V265.4c0,.418-.209.732-.575.732a.665.665,0,0,1-.628-.732Z" transform="translate(-135.217 -257.032)"/>
      <path id="Tracé_32" data-name="Tracé 32" class="cls-1" d="M132.335,264.957H133.9v-4.185l1.883-6.172h-1.622l-1.046,4.132-1.1-4.132H130.4l1.935,6.172Z" transform="translate(-130.4 -254.6)"/>
    </g>
    <g id="Groupe_58" data-name="Groupe 58" transform="translate(0 12.083)">
      <path id="Tracé_33" data-name="Tracé 33" class="cls-1" d="M143.882,277.7H127.143a3.259,3.259,0,0,0-3.243,3.243v8.212a3.259,3.259,0,0,0,3.243,3.243h16.738a3.259,3.259,0,0,0,3.243-3.243v-8.212A3.259,3.259,0,0,0,143.882,277.7Zm-14.489,12.292h-1.517v-8.422h-1.569v-1.412h4.655v1.412h-1.569Zm5.44,0h-1.36v-.785a3.036,3.036,0,0,1-.785.68c-.732.418-1.726.418-1.726-1.046v-6.068h1.36v5.545c0,.314.052.471.366.471a1.32,1.32,0,0,0,.785-.523v-5.492h1.36Zm5.178-1.517c0,.889-.314,1.622-1.255,1.622a1.643,1.643,0,0,1-1.308-.628v.575h-1.36v-9.834h1.36V283.4a1.681,1.681,0,0,1,1.2-.68c.994,0,1.308.837,1.308,1.831v3.923Zm4.969-1.935h-2.563v1.36c0,.523.052.994.575.994.575,0,.628-.366.628-.994v-.523h1.412v.523c0,1.412-.575,2.249-2.04,2.249-1.308,0-1.935-.942-1.935-2.249v-3.243a2.007,2.007,0,0,1,2.04-2.145c1.308,0,1.935.837,1.935,2.145v1.883Z" transform="translate(-123.9 -277.7)"/>
      <path id="Tracé_34" data-name="Tracé 34" class="cls-1" d="M159.828,289.4c-.523,0-.628.366-.628.837v.732h1.2v-.732C160.455,289.714,160.351,289.4,159.828,289.4Z" transform="translate(-140.735 -283.28)"/>
      <path id="Tracé_35" data-name="Tracé 35" class="cls-1" d="M150.162,289.35a.522.522,0,0,0-.262.209v4.551a1.386,1.386,0,0,0,.314.262.635.635,0,0,0,.68-.052c.1-.1.1-.262.1-.523V290.03a.94.94,0,0,0-.157-.575A.624.624,0,0,0,150.162,289.35Z" transform="translate(-136.3 -283.23)"/>
    </g>
  </g>
</svg>
