<svg xmlns="http://www.w3.org/2000/svg" viewBox="0 0 41 41">
  <defs>
    <style>
      .cls-1 {
        fill: #f72d9c;
      }

      .cls-2, .cls-4 {
        fill: none;
      }

      .cls-2 {
        stroke: #f72d9c;
        stroke-width: 2px;
      }

      .cls-3 {
        stroke: none;
      }
    </style>
  </defs>
  <g id="youtube" transform="translate(-67.479)">
    <g id="Youtube-2" data-name="Youtube" transform="translate(-138.189 -2950.588)">
      <g id="Groupe_65" data-name="Groupe 65" transform="translate(217.133 2959.855)">
        <g id="Groupe_59" data-name="Groupe 59" transform="translate(0)">
          <g id="Groupe_57" data-name="Groupe 57" transform="translate(2.71)">
            <path id="Tracé_30" data-name="Tracé 30" class="cls-1" d="M151.492,265.97a1.706,1.706,0,0,0,1.292-.75v.667h1.126V259.8h-1.126v4.627a1.217,1.217,0,0,1-.667.459c-.25,0-.292-.167-.292-.417V259.8H150.7v5.086C150.7,265.47,150.908,265.97,151.492,265.97Z" transform="translate(-142.237 -257.632)"/>
            <path id="Tracé_31" data-name="Tracé 31" class="cls-1" d="M140.5,264.286a1.45,1.45,0,0,0,1.667,1.626,1.554,1.554,0,0,0,1.626-1.626v-2.96a1.647,1.647,0,0,0-3.293,0Zm1.167-2.876c0-.333.167-.584.459-.584.333,0,.5.25.5.584v2.835c0,.334-.167.584-.459.584a.53.53,0,0,1-.5-.584Z" transform="translate(-136.29 -257.574)"/>
            <path id="Tracé_32" data-name="Tracé 32" class="cls-1" d="M131.942,262.854h1.251v-3.335l1.5-4.919H133.4l-.834,3.293-.875-3.293H130.4l1.542,4.919Z" transform="translate(-130.4 -254.6)"/>
          </g>
          <g id="Groupe_58" data-name="Groupe 58" transform="translate(0 9.63)">
            <path id="Tracé_33" data-name="Tracé 33" class="cls-1" d="M139.825,277.7h-13.34a2.6,2.6,0,0,0-2.585,2.585v6.545a2.6,2.6,0,0,0,2.585,2.585h13.34a2.6,2.6,0,0,0,2.585-2.585v-6.545A2.6,2.6,0,0,0,139.825,277.7Zm-11.548,9.8h-1.209v-6.712h-1.251v-1.126h3.71v1.126h-1.251Zm4.336,0h-1.084v-.625a2.42,2.42,0,0,1-.625.542c-.584.333-1.376.333-1.376-.834v-4.836h1.084v4.419c0,.25.042.375.292.375a1.052,1.052,0,0,0,.625-.417v-4.377h1.084Zm4.127-1.209c0,.709-.25,1.292-1,1.292a1.31,1.31,0,0,1-1.042-.5v.459h-1.084V279.7H134.7v2.543a1.34,1.34,0,0,1,.959-.542c.792,0,1.042.667,1.042,1.459v3.127Zm3.96-1.542h-2.043v1.084c0,.417.042.792.459.792.459,0,.5-.292.5-.792v-.417h1.126v.417c0,1.126-.459,1.793-1.626,1.793-1.042,0-1.542-.75-1.542-1.793v-2.585a1.6,1.6,0,0,1,1.626-1.709c1.042,0,1.542.667,1.542,1.709v1.5Z" transform="translate(-123.9 -277.7)"/>
            <path id="Tracé_34" data-name="Tracé 34" class="cls-1" d="M159.7,289.4c-.417,0-.5.292-.5.667v.584h.959v-.584C160.2,289.65,160.117,289.4,159.7,289.4Z" transform="translate(-144.484 -284.523)"/>
            <path id="Tracé_35" data-name="Tracé 35" class="cls-1" d="M150.108,289.339a.416.416,0,0,0-.208.167v3.627a1.1,1.1,0,0,0,.25.208.506.506,0,0,0,.542-.042c.083-.083.083-.208.083-.417v-3a.749.749,0,0,0-.125-.459A.5.5,0,0,0,150.108,289.339Z" transform="translate(-139.061 -284.462)"/>
          </g>
        </g>
      </g>
    </g>
    <g id="Ellipse_6" data-name="Ellipse 6" class="cls-2" transform="translate(67.479 0)">
      <circle class="cls-3" cx="20.5" cy="20.5" r="20.5"/>
      <circle class="cls-4" cx="20.5" cy="20.5" r="19.5"/>
    </g>
  </g>
</svg>
