<svg xmlns="http://www.w3.org/2000/svg" xmlns:xlink="http://www.w3.org/1999/xlink" viewBox="0 0 51 51">
  <defs>
    <style>
      .cls-1 {
        clip-path: url(#clip-Twitter);
      }

      .cls-2 {
        fill: url(#linear-gradient);
      }

      .cls-3 {
        fill: #fff;
      }

      .cls-4 {
        filter: url(#Rectangle_48);
      }
    </style>
    <linearGradient id="linear-gradient" x2="1" y2="1.27" gradientUnits="objectBoundingBox">
      <stop offset="0" stop-color="#8247df"/>
      <stop offset="1" stop-color="#c59ffc"/>
    </linearGradient>
    <filter id="Rectangle_48" x="0.612" y="0" width="49" height="50" filterUnits="userSpaceOnUse">
      <feOffset dx="-1" dy="2" input="SourceAlpha"/>
      <feGaussianBlur result="blur"/>
      <feFlood flood-color="#06fbad"/>
      <feComposite operator="in" in2="blur"/>
      <feComposite in="SourceGraphic"/>
    </filter>
    <clipPath id="clip-Twitter">
      <rect width="51" height="51"/>
    </clipPath>
  </defs>
  <g id="Twitter" class="cls-1">
    <g id="Groupe_76" data-name="Groupe 76" transform="translate(77 -1)">
      <g id="Twitter-2" data-name="Twitter" transform="translate(-200.388 -2946)">
        <g class="cls-4" transform="matrix(1, 0, 0, 1, 123.39, 2947)">
          <rect id="Rectangle_48-2" data-name="Rectangle 48" class="cls-2" width="48" height="48" rx="6" transform="translate(1.61)"/>
        </g>
        <g id="Groupe_63" data-name="Groupe 63" transform="translate(137.418 2827.114)">
          <path id="Tracé_23" data-name="Tracé 23" class="cls-3" d="M124.9,25.778A14.081,14.081,0,0,0,146.544,13.3a10.5,10.5,0,0,0,2.475-2.58,10.353,10.353,0,0,1-2.844.79,5.084,5.084,0,0,0,2.159-2.738,9.173,9.173,0,0,1-3.16,1.211,4.9,4.9,0,0,0-8.373,4.476A13.927,13.927,0,0,1,126.638,9.3a4.9,4.9,0,0,0,1.527,6.583,4.507,4.507,0,0,1-2.212-.632,4.948,4.948,0,0,0,3.95,4.9,5.2,5.2,0,0,1-2.212.105,5,5,0,0,0,4.634,3.423A9.888,9.888,0,0,1,124.9,25.778Z" transform="translate(-126.318 125.6)"/>
        </g>
      </g>
    </g>
  </g>
</svg>
