<svg xmlns="http://www.w3.org/2000/svg" xmlns:xlink="http://www.w3.org/1999/xlink" viewBox="0 0 100 64">
  <defs>
    <style>
      .cls-1 {
        clip-path: url(#clip-Logo_2);
      }

      .cls-2 {
        fill: #f6fafb;
      }
    </style>
    <clipPath id="clip-Logo_2">
      <rect width="100" height="64"/>
    </clipPath>
  </defs>
  <g id="Logo_2" data-name="Logo 2" class="cls-1">
    <g id="Logotype" transform="translate(-161.535 -52.168)">
      <g id="Logo_1" data-name="Logo 1" transform="translate(161.535 52.569)">
        <path id="Tracé_9" data-name="Tracé 9" class="cls-2" d="M100,122.849c0-6.864-1.607-12.272-4.757-16.03a19.925,19.925,0,0,0-16.03-7.3c-4.474,0-8.927,1.759-13.249,5.235A20.406,20.406,0,0,0,52.346,99.5a19.763,19.763,0,0,0-14.7,6.3,20.959,20.959,0,0,0-5.343,9.579L0,162.88l99.7-10.925h.3Zm-62.055-1.911A14.809,14.809,0,0,1,42.2,110.165,13.48,13.48,0,0,1,52.368,105.8c4.149,0,7.819,1.759,11.229,5.365l2.172,2.3,2.3-2.194c3.823-3.627,7.58-5.473,11.164-5.473a13.771,13.771,0,0,1,11.208,5.039c2.194,2.606,3.3,6.646,3.3,11.99v22.806H83.08V124.37a11.38,11.38,0,0,0-.977-5.408,5.359,5.359,0,0,0-4.909-2.737,5.534,5.534,0,0,0-4.887,2.845,10.642,10.642,0,0,0-1.129,5.321v21.264H60.513V124.391a11.19,11.19,0,0,0-1.021-5.452,5.333,5.333,0,0,0-4.909-2.693c-1.8,0-5.973.8-5.973,8.189v21.221H37.945Z" transform="translate(0 -99.5)"/>
      </g>
    </g>
  </g>
</svg>
