<svg xmlns="http://www.w3.org/2000/svg" xmlns:xlink="http://www.w3.org/1999/xlink" viewBox="0 0 71.972 51.775">
  <defs>
    <style>
      .cls-1 {
        fill: #fbe146;
      }

      .cls-2 {
        fill: url(#linear-gradient);
      }

      .cls-3 {
        fill: #f6fafb;
      }
    </style>
    <linearGradient id="linear-gradient" x1="0.5" x2="0.5" y2="1" gradientUnits="objectBoundingBox">
      <stop offset="0" stop-color="#ff5175"/>
      <stop offset="1" stop-color="#ff93a9"/>
    </linearGradient>
  </defs>
  <g id="Logotype" transform="translate(0 0)">
    <g id="Logo_1" data-name="Logo 1" transform="translate(0)">
      <path id="Tracé_2" data-name="Tracé 2" class="cls-1" d="M94.2,141.353c-.121-1.913-3.264-2.976-7.015-2.353a11.2,11.2,0,0,0-5.208,2.171c-2.733-4.676-11.995-20.178-14.606-19.146a.477.477,0,0,0-.258.228c-1.776.865-12.42,6.255-9.732,9.535,0,0,1.792-4.008,10.173-7.227a23.247,23.247,0,0,0,1.336,2.475c-3.249,1.7-10.932,6.119-8.594,8.958,0,0,1.731-3.887,9.778-7.075,3.431,5.223,8.73,11.873,10.6,14.166a1.782,1.782,0,0,0-.03.486c.121,1.913,3.264,2.976,7.015,2.353C91.394,145.331,94.324,143.266,94.2,141.353Z" transform="translate(-56.951 -108.89)"/>
      <path id="Tracé_3" data-name="Tracé 3" class="cls-2" d="M356.245,20.431a8.718,8.718,0,0,0-5.572,1.306C344.053-2.556,340.8-.855,339.953.891c-3.8,3.28-8.153,15.973-8.153,15.973,3.4-.015,9.854,22.456,9.854,22.456.167,1.625,2.612,3.037,5.77,3.219,3.416.213,6.377-1.078,6.6-2.87s-2.353-3.416-5.77-3.614a8.4,8.4,0,0,0-5.785,1.473c-.9-3.264-1.716-6.058-2.49-8.442.668-3.538,5.284-13.452,6.514-16.033,1.594,4.464,2.854,8.73,3.219,9.945a.981.981,0,0,0-.061.3c-.228,1.792,2.353,3.416,5.77,3.614,3.416.213,6.377-1.078,6.6-2.87C362.242,22.268,359.661,20.644,356.245,20.431Zm-17.931,3.9c-.471-1.245-.926-2.323-1.336-3.249.213-5.329,5.071-13.285,6.514-15.547.486,1.032.972,2.186,1.458,3.4C339.969,17.091,338.648,22.041,338.314,24.333Z" transform="translate(-290.069 0.006)"/>
      <path id="Tracé_9" data-name="Tracé 9" class="cls-3" d="M81.227,115.822c0-4.8-1.124-8.578-3.325-11.205a13.928,13.928,0,0,0-11.205-5.1,14.765,14.765,0,0,0-9.262,3.659,14.264,14.264,0,0,0-9.52-3.674,13.815,13.815,0,0,0-10.279,4.4,14.651,14.651,0,0,0-3.735,6.7v25.568H81.227Zm-43.378-1.336a10.352,10.352,0,0,1,2.976-7.531A9.423,9.423,0,0,1,47.93,103.9a10.546,10.546,0,0,1,7.85,3.75l1.518,1.609,1.609-1.533c2.672-2.536,5.3-3.826,7.8-3.826a9.626,9.626,0,0,1,7.834,3.522c1.534,1.822,2.308,4.646,2.308,8.381v15.942H69.4V116.885a7.955,7.955,0,0,0-.683-3.781,3.746,3.746,0,0,0-3.431-1.913,3.868,3.868,0,0,0-3.416,1.989,7.439,7.439,0,0,0-.79,3.72v14.864H53.624V116.9a7.822,7.822,0,0,0-.714-3.811,3.728,3.728,0,0,0-3.431-1.883c-1.26,0-4.175.562-4.175,5.724v14.834H37.849Z" transform="translate(-19.971 -84.392)"/>
    </g>
  </g>
</svg>
