<svg xmlns="http://www.w3.org/2000/svg" xmlns:xlink="http://www.w3.org/1999/xlink" viewBox="0 0 100 90">
  <defs>
    <style>
      .cls-1 {
        clip-path: url(#clip-Next);
      }

      .cls-2 {
        fill: url(#linear-gradient);
      }
    </style>
    <linearGradient id="linear-gradient" x2="1" y2="0.677" gradientUnits="objectBoundingBox">
      <stop offset="0" stop-color="#eaeaea"/>
      <stop offset="1" stop-color="#fff"/>
    </linearGradient>
    <clipPath id="clip-Next">
      <rect width="100" height="90"/>
    </clipPath>
  </defs>
  <g id="Next" class="cls-1">
    <g id="Groupe_8" data-name="Groupe 8" transform="translate(0.269 0.347)">
      <path id="Tracé_12" data-name="Tracé 12" class="cls-2" d="M75.047,35.035,16.721,1.393A10.555,10.555,0,0,0,11.148,0,11.129,11.129,0,0,0,0,11.148V78.432A11.129,11.129,0,0,0,11.148,89.579a13.56,13.56,0,0,0,5.574-1.393L75.047,54.544a11.125,11.125,0,0,0,5.574-9.555A11.294,11.294,0,0,0,75.047,35.035ZM14.134,73.256V15.925L63.9,44.591Z" transform="translate(0 0)"/>
      <path id="Tracé_13" data-name="Tracé 13" class="cls-2" d="M50.067,0A7.053,7.053,0,0,0,43.1,6.967V82.413a6.967,6.967,0,0,0,13.935,0V6.967A6.924,6.924,0,0,0,50.067,0Z" transform="translate(42.697 0)"/>
    </g>
  </g>
</svg>
